[B]Aatma (2013)[/B]
 
http://www.shotpix.com/images/61826683906497233941.jpg


[B]INFO[/B]

[code]VIDEO:
General
Format : MPEG-PS
File size : 433 MiB
Duration : 1h 25mn
Overall bit rate mode : Variable
Overall bit rate : 711 Kbps
Video #224
ID : 224 (0xE0)
Format : MPEG Video
Format version : Version 2
Format profile : Main@Main
Format settings, BVOP : Yes
Format settings, Matrix : Default
Format settings, GOP : M=3, N=13
Duration : 1h 25mn
Bit rate mode : Variable
Bit rate : 569 Kbps
Maximum bit rate : 9 072 Kbps
Width : 352 pixels
Height : 288 pixels
Display aspect ratio : 4:3
Frame rate : 25.000 fps
Standard : PAL
Color space : YUV
Chroma subsampling : 4:2:0
Bit depth : 8 bits
Scan type : Progressive
Compression mode : Lossy
Bits/(Pixel*Frame) : 0.224
Stream size : 346 MiB (80%)


AUDIO:
Audio #192
ID : 192 (0xC0)
Format : MPEG Audio
Format version : Version 1
Format profile : Layer 2
Duration : 1h 25mn
Bit rate mode : Constant
Bit rate : 128 Kbps
Channel(s) : 2 channels
Sampling rate : 48.0 KHz
Compression mode : Lossy
Delay relative to video : -1s 40ms
Stream size : 78.0 MiB (18%)[/code]



[B]SCREEN SHOTS[/B]
 
http://www.shotpix.com/images/02771678104221504526.jpg